<?xml version="1.0" encoding="utf-8"?>
<!-- Generator: Adobe Illustrator 19.1.0, SVG Export Plug-In . SVG Version: 6.00 Build 0)  -->
<svg version="1.1" xmlns="http://www.w3.org/2000/svg" xmlns:xlink="http://www.w3.org/1999/xlink" x="0px" y="0px"
	 viewBox="0 0 306.5 320" style="enable-background:new 0 0 306.5 320;" xml:space="preserve">
<style type="text/css">
	.st0{fill:#0F5B8B;}
	.st1{fill:#0B6CAA;stroke:#2799D6;stroke-width:0.75;stroke-miterlimit:10;}
	.st2{fill:#3396D3;stroke:#52B8E9;stroke-width:0.75;stroke-miterlimit:10;}
	.st3{fill:#9DD1F0;stroke:#C5E6F9;stroke-width:0.75;stroke-miterlimit:10;}
	.st4{fill:#3396D3;}
	.st5{fill:#FFFFFF;}
	.st6{fill:none;stroke:#000000;stroke-width:2.5;stroke-miterlimit:10;}
	.st7{fill:none;stroke:#FFFFFF;stroke-width:2.5;stroke-miterlimit:10;}
	.st8{opacity:0.4;fill:#FFFFFF;}
	.st9{opacity:0.5;fill:#FFFFFF;stroke:#FFFFFF;stroke-width:0.75;stroke-miterlimit:10;}
	.st10{fill:#EA3430;}
	.st11{display:none;fill:#00558C;}
</style>
<g id="flat">
	<g>
		<circle class="st0" cx="153.2" cy="84" r="74.9"/>
		<circle class="st1" cx="153.2" cy="94.3" r="65.3"/>
		<circle class="st2" cx="153.2" cy="105.5" r="53.6"/>
		<circle class="st3" cx="152.7" cy="117.7" r="40.6"/>
	</g>
	<g>
		<path class="st0" d="M14.6,180.1H7.4v-9.5h45.7c5,0,7,2.1,7,7v9.8h-10v-4.9c0-1.7-0.9-2.4-2.4-2.4H25.6v24.3h27.2v9.5H25.6v22.6
			c0,1.5,0.9,2.4,2.4,2.4h22.7c1.5,0,2.4-0.9,2.4-2.4v-5h10.1v9.8c0,5-2.1,7-7,7H21.6c-5,0-7-2.1-7-7V180.1z"/>
		<path class="st0" d="M72.4,204.2c0-1.7-0.9-2.4-2.4-2.4h-4.5v-9.1H76c5.1,0,7.2,2.1,7.2,6.8v26.4c0,7.7,1.5,13.9,10.3,13.9
			c11.4,0,18.2-10,18.2-21v-26.1h10.7v44.1c0,1.6,0.9,2.4,2.4,2.4h4.5v9.1H119c-4.7,0-7-2.2-7-6.2v-2.1c0-1.8,0.1-3.2,0.1-3.2h-0.2
			c-2.3,5.5-9.5,12.8-20.5,12.8c-12.5,0-18.9-6.6-18.9-21.4V204.2z"/>
		<path class="st0" d="M160.6,191.4c6.7,0,20,2.8,20,12.2v5.7H171v-3.1c0-4-6.3-5.7-10.3-5.7c-10.9,0-19,8.1-19,19.9
			c0,12.7,9.2,19.8,19.6,19.8c10.5,0,17.3-7.7,17.3-7.7l4.6,7.6c0,0-7.9,9.6-22.7,9.6c-17.5,0-29.7-12.4-29.7-29.2
			C130.7,204.1,142.7,191.4,160.6,191.4"/>
		<path class="st0" d="M190.5,182.2c0-1.6-0.9-2.4-2.4-2.4h-4.5v-9.1h10.6c5,0,7,2.1,7,7v59.1c0,1.6,0.9,2.4,2.4,2.4h4.5v9.1h-10.6
			c-5,0-7-2.1-7-7V182.2z"/>
		<path class="st0" d="M218.3,204.2c0-1.7-0.9-2.4-2.4-2.4h-4.5v-9.1h10.5c5,0,7,2.1,7,7v37.1c0,1.6,0.9,2.4,2.4,2.4h4.5v9.1h-10.5
			c-5,0-7-2.1-7-7V204.2z M218.5,170.7h9.6v11.1h-9.6V170.7z"/>
		<path class="st0" d="M264.3,191.4c12.9,0,17.2,8.6,17.2,8.6h0.2c0,0-0.2-1.6-0.2-3.7v-14c0-1.6-0.9-2.4-2.4-2.4h-4.5v-9.1h10.6
			c5,0,7,2.1,7,7v59.1c0,1.6,0.9,2.4,2.4,2.4h4.5v9.1h-10.2c-4.8,0-6.8-2.2-6.8-5.9c0-1.7,0.1-2.9,0.1-2.9h-0.2
			c0,0-4.6,10.1-18.3,10.1c-15.1,0-24.5-11.9-24.5-29.2C239,202.8,249.5,191.4,264.3,191.4 M281.8,220.4c0-9.9-5.2-19.8-15.8-19.8
			c-8.7,0-16,7.3-16,19.9c0,12.1,6.5,19.9,15.7,19.9C273.9,240.5,281.8,234.6,281.8,220.4"/>
	</g>
	<g>
		<path class="st4" d="M65.9,298.1c0,1.9-0.1,4,2.2,4c0.4,0,1-0.1,1.8-0.2v2.1c-0.7,0.2-1.3,0.3-2,0.3c-3.9,0-4.4-2.1-4.4-4.8v-1.7
			h-0.1c-1.5,3.9-5.9,7.3-12.3,7.3c-6.2,0-11-2.4-11-9.3c0-7.8,6.7-9.2,12.1-9.8c10.9-0.7,11.4-1.5,11.4-6.9c0-1.5-1.7-6.5-9.2-6.5
			c-5.9,0-9.8,3.1-10.1,8.8h-2.4c0.3-7.3,4.8-10.9,12.6-10.9c5.8,0,11.6,1.7,11.6,8.6V298.1z M63.4,285.5c-1.9,2.2-7.2,1.9-11.9,2.6
			c-5.8,0.7-9,2.7-9,7.6c0,4,2.8,7.2,8.7,7.2c11.1,0,12.3-9.5,12.3-11.2V285.5z"/>
		<path class="st4" d="M74.3,271.2h2.4v7.1h0.1c1.7-4.9,6.6-7.8,11.8-7.8c11.6,0,11.7,9.3,11.7,13.3v20.4h-2.4v-20.9
			c0-3.3-0.4-10.8-9.4-10.8c-7.4,0-11.9,5.8-11.9,13.8v17.8h-2.4V271.2z"/>
		<path class="st4" d="M130,298.1c0,1.9-0.1,4,2.2,4c0.5,0,1-0.1,1.8-0.2v2.1c-0.7,0.2-1.3,0.3-2,0.3c-3.8,0-4.4-2.1-4.4-4.8v-1.7
			h-0.1c-1.5,3.9-5.9,7.3-12.3,7.3c-6.2,0-11-2.4-11-9.3c0-7.8,6.7-9.2,12.1-9.8c10.9-0.7,11.4-1.5,11.4-6.9c0-1.5-1.7-6.5-9.2-6.5
			c-5.9,0-9.8,3.1-10.1,8.8h-2.4c0.3-7.3,4.8-10.9,12.6-10.9c5.8,0,11.6,1.7,11.6,8.6V298.1z M127.5,285.5
			c-1.9,2.2-7.2,1.9-11.9,2.6c-5.8,0.7-9,2.7-9,7.6c0,4,2.8,7.2,8.7,7.2c11.1,0,12.3-9.5,12.3-11.2V285.5z"/>
		<rect x="138.9" y="258.4" class="st4" width="2.4" height="45.8"/>
		<path class="st4" d="M145.8,271.2h2.9l12.3,30.1l11.3-30.1h2.8l-14.1,36.5c-1.3,3.3-2.4,5.7-3.9,6.8c-1.7,1.4-3.9,1.5-7.7,1.5
			v-2.1c3.5,0,5.1-0.4,6.9-2.1c1-1,1.9-3.4,3.4-7.8L145.8,271.2z"/>
		<path class="st4" d="M193.6,273.3h-7.2v23c0,5.3,2.5,5.9,7.1,5.7v2.1c-4.9,0.3-9.9-0.4-9.6-7.8v-23h-6.1v-2.1h6.1V261h2.4v10.3
			h7.2V273.3z"/>
		<path class="st4" d="M199.3,258.4h2.4v6.6h-2.4V258.4z M199.3,271.2h2.4v33h-2.4V271.2z"/>
		<path class="st4" d="M233.7,281.4c-0.5-5.8-5.2-8.9-11.2-8.9c-8.2,0-12.7,7.3-12.7,14.8c0,8.9,4.2,15.5,12.7,15.5
			c6.2,0,10.7-4.3,11.5-10.3h2.4c-1,7.9-6.9,12.4-13.9,12.4c-10.7,0-15.1-8.3-15.1-17.6c0-9.2,5.4-16.9,15.1-16.9
			c7.1,0,12.9,3.5,13.6,11H233.7z"/>
		<path class="st4" d="M242.7,293.2c0.3,6.1,5,9.6,10.9,9.6c4.3,0,10.5-1.3,10.5-7c0-11.2-22.7-3.5-22.7-16.9
			c0-6.5,6.4-8.5,11.9-8.5c6.9,0,12.2,3,12.2,10.5h-2.4c0-6-4.2-8.4-9.8-8.4c-4.4,0-9.5,1.7-9.5,6.4c0,5.3,5.6,6,11,7.3
			c6.5,1.2,11.7,2.8,11.7,9.7c0,7.1-7.1,9.1-12.9,9.1c-7.5,0-13.2-4-13.3-11.7H242.7z"/>
	</g>
</g>
<g id="white">
</g>
<g id="shaded">
</g>
</svg>
